<?xml version="1.0" encoding="UTF-8" standalone="no"?>
<!DOCTYPE svg PUBLIC "-//W3C//DTD SVG 1.1//EN"
 "http://www.w3.org/Graphics/SVG/1.1/DTD/svg11.dtd">
<!-- Generated by graphviz version 2.30.1 (20201013.1554)
 -->
<!-- Title: snakemake_dag Pages: 1 -->
<svg width="1134pt" height="266pt"
 viewBox="0.00 0.00 1134.00 266.00" xmlns="http://www.w3.org/2000/svg" xmlns:xlink="http://www.w3.org/1999/xlink">
<g id="graph0" class="graph" transform="scale(1 1) rotate(0) translate(4 262)">
<title>snakemake_dag</title>
<polygon fill="white" stroke="white" points="-4,5 -4,-262 1131,-262 1131,5 -4,5"/>
<!-- 0 -->
<g id="node1" class="node"><title>0</title>
<path fill="none" stroke="#d85656" stroke-width="2" d="M577,-36C577,-36 547,-36 547,-36 541,-36 535,-30 535,-24 535,-24 535,-12 535,-12 535,-6 541,-0 547,-0 547,-0 577,-0 577,-0 583,-0 589,-6 589,-12 589,-12 589,-24 589,-24 589,-30 583,-36 577,-36"/>
<text text-anchor="middle" x="562" y="-15.5" font-family="sans" font-size="10.00">all</text>
</g>
<!-- 1 -->
<g id="node2" class="node"><title>1</title>
<path fill="none" stroke="#56d88a" stroke-width="2" d="M220,-257.5C220,-257.5 116,-257.5 116,-257.5 110,-257.5 104,-251.5 104,-245.5 104,-245.5 104,-228.5 104,-228.5 104,-222.5 110,-216.5 116,-216.5 116,-216.5 220,-216.5 220,-216.5 226,-216.5 232,-222.5 232,-228.5 232,-228.5 232,-245.5 232,-245.5 232,-251.5 226,-257.5 220,-257.5"/>
<text text-anchor="middle" x="168" y="-245.5" font-family="sans" font-size="10.00">sample_convert</text>
<text text-anchor="middle" x="168" y="-234.5" font-family="sans" font-size="10.00">probe: probe_1</text>
<text text-anchor="middle" x="168" y="-223.5" font-family="sans" font-size="10.00">sample: Apr_2022_ZT0</text>
</g>
<!-- 6 -->
<g id="node7" class="node"><title>6</title>
<path fill="none" stroke="#56c1d8" stroke-width="2" d="M112.25,-180C112.25,-180 11.75,-180 11.75,-180 5.75,-180 -0.25,-174 -0.25,-168 -0.25,-168 -0.25,-156 -0.25,-156 -0.25,-150 5.75,-144 11.75,-144 11.75,-144 112.25,-144 112.25,-144 118.25,-144 124.25,-150 124.25,-156 124.25,-156 124.25,-168 124.25,-168 124.25,-174 118.25,-180 112.25,-180"/>
<text text-anchor="middle" x="62" y="-165" font-family="sans" font-size="10.00">sample_singlechannel</text>
<text text-anchor="middle" x="62" y="-154" font-family="sans" font-size="10.00">light_train: fish_t1</text>
</g>
<!-- 1&#45;&gt;6 -->
<g id="edge10" class="edge"><title>1&#45;&gt;6</title>
<path fill="none" stroke="grey" stroke-width="2" d="M139.594,-216.437C125.984,-207.064 109.593,-195.776 95.3897,-185.995"/>
<polygon fill="grey" stroke="grey" points="97.0943,-182.919 86.8732,-180.13 93.1239,-188.684 97.0943,-182.919"/>
</g>
<!-- 14 -->
<g id="node15" class="node"><title>14</title>
<path fill="none" stroke="#56c1d8" stroke-width="2" d="M255.25,-180C255.25,-180 154.75,-180 154.75,-180 148.75,-180 142.75,-174 142.75,-168 142.75,-168 142.75,-156 142.75,-156 142.75,-150 148.75,-144 154.75,-144 154.75,-144 255.25,-144 255.25,-144 261.25,-144 267.25,-150 267.25,-156 267.25,-156 267.25,-168 267.25,-168 267.25,-174 261.25,-180 255.25,-180"/>
<text text-anchor="middle" x="205" y="-165" font-family="sans" font-size="10.00">sample_singlechannel</text>
<text text-anchor="middle" x="205" y="-154" font-family="sans" font-size="10.00">light_train: cytoplasm</text>
</g>
<!-- 1&#45;&gt;14 -->
<g id="edge18" class="edge"><title>1&#45;&gt;14</title>
<path fill="none" stroke="grey" stroke-width="2" d="M177.915,-216.437C182.173,-208.037 187.21,-198.098 191.779,-189.085"/>
<polygon fill="grey" stroke="grey" points="194.919,-190.632 196.318,-180.13 188.675,-187.467 194.919,-190.632"/>
</g>
<!-- 2 -->
<g id="node3" class="node"><title>2</title>
<path fill="none" stroke="#56d88a" stroke-width="2" d="M438.25,-257.5C438.25,-257.5 331.75,-257.5 331.75,-257.5 325.75,-257.5 319.75,-251.5 319.75,-245.5 319.75,-245.5 319.75,-228.5 319.75,-228.5 319.75,-222.5 325.75,-216.5 331.75,-216.5 331.75,-216.5 438.25,-216.5 438.25,-216.5 444.25,-216.5 450.25,-222.5 450.25,-228.5 450.25,-228.5 450.25,-245.5 450.25,-245.5 450.25,-251.5 444.25,-257.5 438.25,-257.5"/>
<text text-anchor="middle" x="385" y="-245.5" font-family="sans" font-size="10.00">sample_convert</text>
<text text-anchor="middle" x="385" y="-234.5" font-family="sans" font-size="10.00">probe: probe_1</text>
<text text-anchor="middle" x="385" y="-223.5" font-family="sans" font-size="10.00">sample: Mar_2022_ZT8</text>
</g>
<!-- 8 -->
<g id="node9" class="node"><title>8</title>
<path fill="none" stroke="#56c1d8" stroke-width="2" d="M398.25,-180C398.25,-180 297.75,-180 297.75,-180 291.75,-180 285.75,-174 285.75,-168 285.75,-168 285.75,-156 285.75,-156 285.75,-150 291.75,-144 297.75,-144 297.75,-144 398.25,-144 398.25,-144 404.25,-144 410.25,-150 410.25,-156 410.25,-156 410.25,-168 410.25,-168 410.25,-174 404.25,-180 398.25,-180"/>
<text text-anchor="middle" x="348" y="-165" font-family="sans" font-size="10.00">sample_singlechannel</text>
<text text-anchor="middle" x="348" y="-154" font-family="sans" font-size="10.00">light_train: fish_t1</text>
</g>
<!-- 2&#45;&gt;8 -->
<g id="edge12" class="edge"><title>2&#45;&gt;8</title>
<path fill="none" stroke="grey" stroke-width="2" d="M375.085,-216.437C370.827,-208.037 365.79,-198.098 361.221,-189.085"/>
<polygon fill="grey" stroke="grey" points="364.325,-187.467 356.682,-180.13 358.081,-190.632 364.325,-187.467"/>
</g>
<!-- 16 -->
<g id="node17" class="node"><title>16</title>
<path fill="none" stroke="#56c1d8" stroke-width="2" d="M541.25,-180C541.25,-180 440.75,-180 440.75,-180 434.75,-180 428.75,-174 428.75,-168 428.75,-168 428.75,-156 428.75,-156 428.75,-150 434.75,-144 440.75,-144 440.75,-144 541.25,-144 541.25,-144 547.25,-144 553.25,-150 553.25,-156 553.25,-156 553.25,-168 553.25,-168 553.25,-174 547.25,-180 541.25,-180"/>
<text text-anchor="middle" x="491" y="-165" font-family="sans" font-size="10.00">sample_singlechannel</text>
<text text-anchor="middle" x="491" y="-154" font-family="sans" font-size="10.00">light_train: cytoplasm</text>
</g>
<!-- 2&#45;&gt;16 -->
<g id="edge20" class="edge"><title>2&#45;&gt;16</title>
<path fill="none" stroke="grey" stroke-width="2" d="M413.406,-216.437C427.016,-207.064 443.407,-195.776 457.61,-185.995"/>
<polygon fill="grey" stroke="grey" points="459.876,-188.684 466.127,-180.13 455.906,-182.919 459.876,-188.684"/>
</g>
<!-- 3 -->
<g id="node4" class="node"><title>3</title>
<path fill="none" stroke="#56d88a" stroke-width="2" d="M757,-257.5C757,-257.5 653,-257.5 653,-257.5 647,-257.5 641,-251.5 641,-245.5 641,-245.5 641,-228.5 641,-228.5 641,-222.5 647,-216.5 653,-216.5 653,-216.5 757,-216.5 757,-216.5 763,-216.5 769,-222.5 769,-228.5 769,-228.5 769,-245.5 769,-245.5 769,-251.5 763,-257.5 757,-257.5"/>
<text text-anchor="middle" x="705" y="-245.5" font-family="sans" font-size="10.00">sample_convert</text>
<text text-anchor="middle" x="705" y="-234.5" font-family="sans" font-size="10.00">probe: probe_2</text>
<text text-anchor="middle" x="705" y="-223.5" font-family="sans" font-size="10.00">sample: Apr_2022_ZT0</text>
</g>
<!-- 10 -->
<g id="node11" class="node"><title>10</title>
<path fill="none" stroke="#56c1d8" stroke-width="2" d="M684.25,-180C684.25,-180 583.75,-180 583.75,-180 577.75,-180 571.75,-174 571.75,-168 571.75,-168 571.75,-156 571.75,-156 571.75,-150 577.75,-144 583.75,-144 583.75,-144 684.25,-144 684.25,-144 690.25,-144 696.25,-150 696.25,-156 696.25,-156 696.25,-168 696.25,-168 696.25,-174 690.25,-180 684.25,-180"/>
<text text-anchor="middle" x="634" y="-165" font-family="sans" font-size="10.00">sample_singlechannel</text>
<text text-anchor="middle" x="634" y="-154" font-family="sans" font-size="10.00">light_train: fish_t1</text>
</g>
<!-- 3&#45;&gt;10 -->
<g id="edge14" class="edge"><title>3&#45;&gt;10</title>
<path fill="none" stroke="grey" stroke-width="2" d="M685.973,-216.437C677.287,-207.506 666.91,-196.837 657.72,-187.389"/>
<polygon fill="grey" stroke="grey" points="660.142,-184.858 650.66,-180.13 655.124,-189.739 660.142,-184.858"/>
</g>
<!-- 18 -->
<g id="node19" class="node"><title>18</title>
<path fill="none" stroke="#56c1d8" stroke-width="2" d="M827.25,-180C827.25,-180 726.75,-180 726.75,-180 720.75,-180 714.75,-174 714.75,-168 714.75,-168 714.75,-156 714.75,-156 714.75,-150 720.75,-144 726.75,-144 726.75,-144 827.25,-144 827.25,-144 833.25,-144 839.25,-150 839.25,-156 839.25,-156 839.25,-168 839.25,-168 839.25,-174 833.25,-180 827.25,-180"/>
<text text-anchor="middle" x="777" y="-165" font-family="sans" font-size="10.00">sample_singlechannel</text>
<text text-anchor="middle" x="777" y="-154" font-family="sans" font-size="10.00">light_train: cytoplasm</text>
</g>
<!-- 3&#45;&gt;18 -->
<g id="edge22" class="edge"><title>3&#45;&gt;18</title>
<path fill="none" stroke="grey" stroke-width="2" d="M724.295,-216.437C733.103,-207.506 743.627,-196.837 752.945,-187.389"/>
<polygon fill="grey" stroke="grey" points="755.575,-189.707 760.105,-180.13 750.591,-184.792 755.575,-189.707"/>
</g>
<!-- 4 -->
<g id="node5" class="node"><title>4</title>
<path fill="none" stroke="#56d88a" stroke-width="2" d="M1044.25,-257.5C1044.25,-257.5 937.75,-257.5 937.75,-257.5 931.75,-257.5 925.75,-251.5 925.75,-245.5 925.75,-245.5 925.75,-228.5 925.75,-228.5 925.75,-222.5 931.75,-216.5 937.75,-216.5 937.75,-216.5 1044.25,-216.5 1044.25,-216.5 1050.25,-216.5 1056.25,-222.5 1056.25,-228.5 1056.25,-228.5 1056.25,-245.5 1056.25,-245.5 1056.25,-251.5 1050.25,-257.5 1044.25,-257.5"/>
<text text-anchor="middle" x="991" y="-245.5" font-family="sans" font-size="10.00">sample_convert</text>
<text text-anchor="middle" x="991" y="-234.5" font-family="sans" font-size="10.00">probe: probe_2</text>
<text text-anchor="middle" x="991" y="-223.5" font-family="sans" font-size="10.00">sample: Mar_2022_ZT8</text>
</g>
<!-- 12 -->
<g id="node13" class="node"><title>12</title>
<path fill="none" stroke="#56c1d8" stroke-width="2" d="M970.25,-180C970.25,-180 869.75,-180 869.75,-180 863.75,-180 857.75,-174 857.75,-168 857.75,-168 857.75,-156 857.75,-156 857.75,-150 863.75,-144 869.75,-144 869.75,-144 970.25,-144 970.25,-144 976.25,-144 982.25,-150 982.25,-156 982.25,-156 982.25,-168 982.25,-168 982.25,-174 976.25,-180 970.25,-180"/>
<text text-anchor="middle" x="920" y="-165" font-family="sans" font-size="10.00">sample_singlechannel</text>
<text text-anchor="middle" x="920" y="-154" font-family="sans" font-size="10.00">light_train: fish_t1</text>
</g>
<!-- 4&#45;&gt;12 -->
<g id="edge16" class="edge"><title>4&#45;&gt;12</title>
<path fill="none" stroke="grey" stroke-width="2" d="M971.973,-216.437C963.287,-207.506 952.91,-196.837 943.72,-187.389"/>
<polygon fill="grey" stroke="grey" points="946.142,-184.858 936.66,-180.13 941.124,-189.739 946.142,-184.858"/>
</g>
<!-- 20 -->
<g id="node21" class="node"><title>20</title>
<path fill="none" stroke="#56c1d8" stroke-width="2" d="M1113.25,-180C1113.25,-180 1012.75,-180 1012.75,-180 1006.75,-180 1000.75,-174 1000.75,-168 1000.75,-168 1000.75,-156 1000.75,-156 1000.75,-150 1006.75,-144 1012.75,-144 1012.75,-144 1113.25,-144 1113.25,-144 1119.25,-144 1125.25,-150 1125.25,-156 1125.25,-156 1125.25,-168 1125.25,-168 1125.25,-174 1119.25,-180 1113.25,-180"/>
<text text-anchor="middle" x="1063" y="-165" font-family="sans" font-size="10.00">sample_singlechannel</text>
<text text-anchor="middle" x="1063" y="-154" font-family="sans" font-size="10.00">light_train: cytoplasm</text>
</g>
<!-- 4&#45;&gt;20 -->
<g id="edge24" class="edge"><title>4&#45;&gt;20</title>
<path fill="none" stroke="grey" stroke-width="2" d="M1010.29,-216.437C1019.1,-207.506 1029.63,-196.837 1038.95,-187.389"/>
<polygon fill="grey" stroke="grey" points="1041.57,-189.707 1046.1,-180.13 1036.59,-184.792 1041.57,-189.707"/>
</g>
<!-- 5 -->
<g id="node6" class="node"><title>5</title>
<path fill="none" stroke="#d8bc56" stroke-width="2" d="M112.25,-108C112.25,-108 27.75,-108 27.75,-108 21.75,-108 15.75,-102 15.75,-96 15.75,-96 15.75,-84 15.75,-84 15.75,-78 21.75,-72 27.75,-72 27.75,-72 112.25,-72 112.25,-72 118.25,-72 124.25,-78 124.25,-84 124.25,-84 124.25,-96 124.25,-96 124.25,-102 118.25,-108 112.25,-108"/>
<text text-anchor="middle" x="70" y="-93" font-family="sans" font-size="10.00">fishdot</text>
<text text-anchor="middle" x="70" y="-82" font-family="sans" font-size="10.00">params: 1.1+3+30</text>
</g>
<!-- 5&#45;&gt;0 -->
<g id="edge1" class="edge"><title>5&#45;&gt;0</title>
<path fill="none" stroke="grey" stroke-width="2" d="M124.528,-75.3056C130.074,-74.1044 135.638,-72.9764 141,-72 281.574,-46.4021 450.808,-29.1686 524.576,-22.3192"/>
<polygon fill="grey" stroke="grey" points="525.115,-25.7846 534.753,-21.3843 524.475,-18.814 525.115,-25.7846"/>
</g>
<!-- 6&#45;&gt;5 -->
<g id="edge9" class="edge"><title>6&#45;&gt;5</title>
<path fill="none" stroke="grey" stroke-width="2" d="M63.9775,-143.697C64.8591,-135.983 65.9186,-126.712 66.9014,-118.112"/>
<polygon fill="grey" stroke="grey" points="70.387,-118.437 68.0452,-108.104 63.4323,-117.642 70.387,-118.437"/>
</g>
<!-- 7 -->
<g id="node8" class="node"><title>7</title>
<path fill="none" stroke="#d8bc56" stroke-width="2" d="M397.25,-108C397.25,-108 312.75,-108 312.75,-108 306.75,-108 300.75,-102 300.75,-96 300.75,-96 300.75,-84 300.75,-84 300.75,-78 306.75,-72 312.75,-72 312.75,-72 397.25,-72 397.25,-72 403.25,-72 409.25,-78 409.25,-84 409.25,-84 409.25,-96 409.25,-96 409.25,-102 403.25,-108 397.25,-108"/>
<text text-anchor="middle" x="355" y="-93" font-family="sans" font-size="10.00">fishdot</text>
<text text-anchor="middle" x="355" y="-82" font-family="sans" font-size="10.00">params: 1.1+3+30</text>
</g>
<!-- 7&#45;&gt;0 -->
<g id="edge2" class="edge"><title>7&#45;&gt;0</title>
<path fill="none" stroke="grey" stroke-width="2" d="M405.373,-71.9656C442.356,-59.4594 491.755,-42.7545 525.108,-31.4754"/>
<polygon fill="grey" stroke="grey" points="526.561,-34.6789 534.913,-28.1598 524.319,-28.0478 526.561,-34.6789"/>
</g>
<!-- 8&#45;&gt;7 -->
<g id="edge11" class="edge"><title>8&#45;&gt;7</title>
<path fill="none" stroke="grey" stroke-width="2" d="M349.73,-143.697C350.502,-135.983 351.429,-126.712 352.289,-118.112"/>
<polygon fill="grey" stroke="grey" points="355.777,-118.403 353.29,-108.104 348.812,-117.706 355.777,-118.403"/>
</g>
<!-- 9 -->
<g id="node10" class="node"><title>9</title>
<path fill="none" stroke="#d8bc56" stroke-width="2" d="M673.25,-108C673.25,-108 588.75,-108 588.75,-108 582.75,-108 576.75,-102 576.75,-96 576.75,-96 576.75,-84 576.75,-84 576.75,-78 582.75,-72 588.75,-72 588.75,-72 673.25,-72 673.25,-72 679.25,-72 685.25,-78 685.25,-84 685.25,-84 685.25,-96 685.25,-96 685.25,-102 679.25,-108 673.25,-108"/>
<text text-anchor="middle" x="631" y="-93" font-family="sans" font-size="10.00">fishdot</text>
<text text-anchor="middle" x="631" y="-82" font-family="sans" font-size="10.00">params: 1.1+3+30</text>
</g>
<!-- 9&#45;&gt;0 -->
<g id="edge3" class="edge"><title>9&#45;&gt;0</title>
<path fill="none" stroke="grey" stroke-width="2" d="M613.944,-71.6966C605.505,-63.135 595.175,-52.6562 585.957,-43.3045"/>
<polygon fill="grey" stroke="grey" points="588.373,-40.7691 578.86,-36.1043 583.387,-45.6831 588.373,-40.7691"/>
</g>
<!-- 10&#45;&gt;9 -->
<g id="edge13" class="edge"><title>10&#45;&gt;9</title>
<path fill="none" stroke="grey" stroke-width="2" d="M633.258,-143.697C632.928,-135.983 632.531,-126.712 632.162,-118.112"/>
<polygon fill="grey" stroke="grey" points="635.658,-117.945 631.733,-108.104 628.665,-118.245 635.658,-117.945"/>
</g>
<!-- 11 -->
<g id="node12" class="node"><title>11</title>
<path fill="none" stroke="#d8bc56" stroke-width="2" d="M956.25,-108C956.25,-108 871.75,-108 871.75,-108 865.75,-108 859.75,-102 859.75,-96 859.75,-96 859.75,-84 859.75,-84 859.75,-78 865.75,-72 871.75,-72 871.75,-72 956.25,-72 956.25,-72 962.25,-72 968.25,-78 968.25,-84 968.25,-84 968.25,-96 968.25,-96 968.25,-102 962.25,-108 956.25,-108"/>
<text text-anchor="middle" x="914" y="-93" font-family="sans" font-size="10.00">fishdot</text>
<text text-anchor="middle" x="914" y="-82" font-family="sans" font-size="10.00">params: 1.1+3+30</text>
</g>
<!-- 11&#45;&gt;0 -->
<g id="edge4" class="edge"><title>11&#45;&gt;0</title>
<path fill="none" stroke="grey" stroke-width="2" d="M859.414,-75.8405C853.544,-74.5064 847.653,-73.2018 842,-72 755.347,-53.5786 652.925,-34.9972 599.189,-25.4923"/>
<polygon fill="grey" stroke="grey" points="599.566,-22.0048 589.11,-23.7151 598.351,-28.8985 599.566,-22.0048"/>
</g>
<!-- 12&#45;&gt;11 -->
<g id="edge15" class="edge"><title>12&#45;&gt;11</title>
<path fill="none" stroke="grey" stroke-width="2" d="M918.517,-143.697C917.856,-135.983 917.061,-126.712 916.324,-118.112"/>
<polygon fill="grey" stroke="grey" points="919.807,-117.769 915.466,-108.104 912.833,-118.367 919.807,-117.769"/>
</g>
<!-- 13 -->
<g id="node14" class="node"><title>13</title>
<path fill="none" stroke="#88d856" stroke-width="2" d="M261.25,-108C261.25,-108 162.75,-108 162.75,-108 156.75,-108 150.75,-102 150.75,-96 150.75,-96 150.75,-84 150.75,-84 150.75,-78 156.75,-72 162.75,-72 162.75,-72 261.25,-72 261.25,-72 267.25,-72 273.25,-78 273.25,-84 273.25,-84 273.25,-96 273.25,-96 273.25,-102 267.25,-108 261.25,-108"/>
<text text-anchor="middle" x="212" y="-93" font-family="sans" font-size="10.00">segmentation</text>
<text text-anchor="middle" x="212" y="-82" font-family="sans" font-size="10.00">params: full_cell+cpu</text>
</g>
<!-- 13&#45;&gt;0 -->
<g id="edge5" class="edge"><title>13&#45;&gt;0</title>
<path fill="none" stroke="grey" stroke-width="2" d="M273.648,-75.6169C279.51,-74.3796 285.366,-73.1571 291,-72 374.253,-54.9029 472.166,-36.0679 524.506,-26.1016"/>
<polygon fill="grey" stroke="grey" points="525.485,-29.4782 534.655,-24.1715 524.177,-22.6015 525.485,-29.4782"/>
</g>
<!-- 14&#45;&gt;13 -->
<g id="edge17" class="edge"><title>14&#45;&gt;13</title>
<path fill="none" stroke="grey" stroke-width="2" d="M206.73,-143.697C207.502,-135.983 208.429,-126.712 209.289,-118.112"/>
<polygon fill="grey" stroke="grey" points="212.777,-118.403 210.29,-108.104 205.812,-117.706 212.777,-118.403"/>
</g>
<!-- 15 -->
<g id="node16" class="node"><title>15</title>
<path fill="none" stroke="#88d856" stroke-width="2" d="M542.25,-108C542.25,-108 443.75,-108 443.75,-108 437.75,-108 431.75,-102 431.75,-96 431.75,-96 431.75,-84 431.75,-84 431.75,-78 437.75,-72 443.75,-72 443.75,-72 542.25,-72 542.25,-72 548.25,-72 554.25,-78 554.25,-84 554.25,-84 554.25,-96 554.25,-96 554.25,-102 548.25,-108 542.25,-108"/>
<text text-anchor="middle" x="493" y="-93" font-family="sans" font-size="10.00">segmentation</text>
<text text-anchor="middle" x="493" y="-82" font-family="sans" font-size="10.00">params: full_cell+cpu</text>
</g>
<!-- 15&#45;&gt;0 -->
<g id="edge6" class="edge"><title>15&#45;&gt;0</title>
<path fill="none" stroke="grey" stroke-width="2" d="M510.056,-71.6966C518.495,-63.135 528.825,-52.6562 538.043,-43.3045"/>
<polygon fill="grey" stroke="grey" points="540.613,-45.6831 545.14,-36.1043 535.627,-40.7691 540.613,-45.6831"/>
</g>
<!-- 16&#45;&gt;15 -->
<g id="edge19" class="edge"><title>16&#45;&gt;15</title>
<path fill="none" stroke="grey" stroke-width="2" d="M491.494,-143.697C491.715,-135.983 491.98,-126.712 492.225,-118.112"/>
<polygon fill="grey" stroke="grey" points="495.724,-118.2 492.511,-108.104 488.727,-118 495.724,-118.2"/>
</g>
<!-- 17 -->
<g id="node18" class="node"><title>17</title>
<path fill="none" stroke="#88d856" stroke-width="2" d="M821.25,-108C821.25,-108 722.75,-108 722.75,-108 716.75,-108 710.75,-102 710.75,-96 710.75,-96 710.75,-84 710.75,-84 710.75,-78 716.75,-72 722.75,-72 722.75,-72 821.25,-72 821.25,-72 827.25,-72 833.25,-78 833.25,-84 833.25,-84 833.25,-96 833.25,-96 833.25,-102 827.25,-108 821.25,-108"/>
<text text-anchor="middle" x="772" y="-93" font-family="sans" font-size="10.00">segmentation</text>
<text text-anchor="middle" x="772" y="-82" font-family="sans" font-size="10.00">params: full_cell+cpu</text>
</g>
<!-- 17&#45;&gt;0 -->
<g id="edge7" class="edge"><title>17&#45;&gt;0</title>
<path fill="none" stroke="grey" stroke-width="2" d="M720.897,-71.9656C683.106,-59.3686 632.535,-42.5118 598.692,-31.2307"/>
<polygon fill="grey" stroke="grey" points="599.781,-27.9044 589.187,-28.0624 597.567,-34.5452 599.781,-27.9044"/>
</g>
<!-- 18&#45;&gt;17 -->
<g id="edge21" class="edge"><title>18&#45;&gt;17</title>
<path fill="none" stroke="grey" stroke-width="2" d="M775.764,-143.697C775.213,-135.983 774.551,-126.712 773.937,-118.112"/>
<polygon fill="grey" stroke="grey" points="777.425,-117.83 773.222,-108.104 770.443,-118.328 777.425,-117.83"/>
</g>
<!-- 19 -->
<g id="node20" class="node"><title>19</title>
<path fill="none" stroke="#88d856" stroke-width="2" d="M1105.25,-108C1105.25,-108 1006.75,-108 1006.75,-108 1000.75,-108 994.75,-102 994.75,-96 994.75,-96 994.75,-84 994.75,-84 994.75,-78 1000.75,-72 1006.75,-72 1006.75,-72 1105.25,-72 1105.25,-72 1111.25,-72 1117.25,-78 1117.25,-84 1117.25,-84 1117.25,-96 1117.25,-96 1117.25,-102 1111.25,-108 1105.25,-108"/>
<text text-anchor="middle" x="1056" y="-93" font-family="sans" font-size="10.00">segmentation</text>
<text text-anchor="middle" x="1056" y="-82" font-family="sans" font-size="10.00">params: full_cell+cpu</text>
</g>
<!-- 19&#45;&gt;0 -->
<g id="edge8" class="edge"><title>19&#45;&gt;0</title>
<path fill="none" stroke="grey" stroke-width="2" d="M994.427,-75.2215C988.549,-74.0658 982.67,-72.9702 977,-72 838.479,-48.2945 672.285,-30.1469 599.376,-22.6972"/>
<polygon fill="grey" stroke="grey" points="599.612,-19.2033 589.31,-21.6763 598.906,-26.1676 599.612,-19.2033"/>
</g>
<!-- 20&#45;&gt;19 -->
<g id="edge23" class="edge"><title>20&#45;&gt;19</title>
<path fill="none" stroke="grey" stroke-width="2" d="M1061.27,-143.697C1060.5,-135.983 1059.57,-126.712 1058.71,-118.112"/>
<polygon fill="grey" stroke="grey" points="1062.19,-117.706 1057.71,-108.104 1055.22,-118.403 1062.19,-117.706"/>
</g>
</g>
</svg>
